G75*
G70*
%OFA0B0*%
%FSLAX24Y24*%
%IPPOS*%
%LPD*%
%AMOC8*
5,1,8,0,0,1.08239X$1,22.5*
%
%ADD10R,0.0740X0.0740*%
%ADD11OC8,0.0740*%
%ADD12C,0.0740*%
%ADD13R,0.0315X0.0472*%
%ADD14C,0.0515*%
%ADD15C,0.0100*%
%ADD16C,0.0554*%
%ADD17C,0.0476*%
%ADD18C,0.0160*%
D10*
X000910Y013121D03*
D11*
X001910Y013121D03*
X002910Y013121D03*
X002910Y014121D03*
X001910Y014121D03*
X000910Y014121D03*
D12*
X006535Y014121D03*
X006535Y013121D03*
X000910Y005871D03*
X000910Y004871D03*
X017410Y013121D03*
X017410Y014121D03*
D13*
X017931Y001246D03*
X018640Y001246D03*
D14*
X014285Y001184D03*
X012160Y001184D03*
X007910Y002371D03*
X008973Y004996D03*
X008223Y006309D03*
X010223Y008621D03*
X003035Y007746D03*
X000785Y008496D03*
X002410Y002371D03*
D15*
X000310Y000771D02*
X000310Y014717D01*
X019005Y014717D01*
X019005Y000771D01*
X000310Y000771D01*
X000310Y000773D02*
X019005Y000773D01*
X019005Y000872D02*
X018857Y000872D01*
X018855Y000870D02*
X018889Y000890D01*
X018917Y000918D01*
X018937Y000952D01*
X018947Y000990D01*
X018947Y001218D01*
X018669Y001218D01*
X018669Y001275D01*
X018947Y001275D01*
X018947Y001502D01*
X018937Y001540D01*
X018917Y001575D01*
X018889Y001603D01*
X018855Y001622D01*
X018817Y001633D01*
X018668Y001633D01*
X018668Y001275D01*
X018611Y001275D01*
X018611Y001633D01*
X018462Y001633D01*
X018424Y001622D01*
X018390Y001603D01*
X018362Y001575D01*
X018342Y001540D01*
X018332Y001502D01*
X018332Y001275D01*
X018611Y001275D01*
X018611Y001218D01*
X018332Y001218D01*
X018332Y000990D01*
X018342Y000952D01*
X018362Y000918D01*
X018390Y000890D01*
X018424Y000870D01*
X018462Y000860D01*
X018611Y000860D01*
X018611Y001217D01*
X018668Y001217D01*
X018668Y000860D01*
X018817Y000860D01*
X018855Y000870D01*
X018942Y000970D02*
X019005Y000970D01*
X019005Y001069D02*
X018947Y001069D01*
X018947Y001167D02*
X019005Y001167D01*
X019005Y001266D02*
X018669Y001266D01*
X018611Y001266D02*
X018218Y001266D01*
X018218Y001364D02*
X018332Y001364D01*
X018332Y001463D02*
X018218Y001463D01*
X018218Y001536D02*
X018142Y001613D01*
X017720Y001613D01*
X017643Y001536D01*
X017643Y001426D01*
X017609Y001426D01*
X017597Y001455D01*
X017494Y001558D01*
X017358Y001614D01*
X017212Y001614D01*
X017184Y001602D01*
X016840Y001946D01*
X016735Y002051D01*
X016720Y002051D01*
X016965Y002297D01*
X016965Y002423D01*
X016994Y002435D01*
X017097Y002538D01*
X017153Y002673D01*
X017153Y002819D01*
X017097Y002955D01*
X016994Y003058D01*
X016858Y003114D01*
X016712Y003114D01*
X016577Y003058D01*
X016473Y002955D01*
X016417Y002819D01*
X016417Y002673D01*
X016473Y002538D01*
X016577Y002435D01*
X016589Y002430D01*
X016461Y002301D01*
X015845Y002301D01*
X015922Y002379D01*
X015983Y002379D01*
X016119Y002435D01*
X016222Y002538D01*
X016278Y002673D01*
X016278Y002819D01*
X016222Y002955D01*
X016119Y003058D01*
X015983Y003114D01*
X015837Y003114D01*
X015702Y003058D01*
X015598Y002955D01*
X015542Y002819D01*
X015542Y002673D01*
X015591Y002556D01*
X015586Y002551D01*
X012485Y002551D01*
X011869Y003167D01*
X011962Y003129D01*
X012108Y003129D01*
X012244Y003185D01*
X012347Y003288D01*
X012403Y003423D01*
X012403Y003569D01*
X012347Y003705D01*
X012244Y003808D01*
X012108Y003864D01*
X011962Y003864D01*
X011827Y003808D01*
X011723Y003705D01*
X011718Y003693D01*
X011590Y003821D01*
X011485Y003926D01*
X009977Y003926D01*
X010028Y004048D01*
X010028Y004194D01*
X009972Y004330D01*
X009869Y004433D01*
X009733Y004489D01*
X009587Y004489D01*
X009452Y004433D01*
X009348Y004330D01*
X009292Y004194D01*
X009292Y004176D01*
X007985Y004176D01*
X007215Y004946D01*
X007215Y005696D01*
X007110Y005801D01*
X007048Y005864D01*
X007097Y005913D01*
X007153Y006048D01*
X007153Y006194D01*
X007097Y006330D01*
X006994Y006433D01*
X006858Y006489D01*
X006712Y006489D01*
X006577Y006433D01*
X006473Y006330D01*
X006417Y006194D01*
X006417Y006058D01*
X006116Y006309D01*
X006119Y006310D01*
X006222Y006413D01*
X006278Y006548D01*
X006278Y006694D01*
X006222Y006830D01*
X006119Y006933D01*
X005983Y006989D01*
X005837Y006989D01*
X005702Y006933D01*
X005598Y006830D01*
X005542Y006694D01*
X005542Y006548D01*
X005581Y006455D01*
X005529Y006507D01*
X005529Y006859D01*
X005557Y006871D01*
X005661Y006974D01*
X005717Y007109D01*
X005717Y007256D01*
X005661Y007391D01*
X005557Y007494D01*
X005422Y007550D01*
X005276Y007550D01*
X005141Y007494D01*
X005037Y007391D01*
X004981Y007256D01*
X004981Y007109D01*
X005037Y006974D01*
X005141Y006871D01*
X005169Y006859D01*
X005169Y006507D01*
X005169Y006492D01*
X004465Y007196D01*
X004465Y008162D01*
X004519Y008185D01*
X004622Y008288D01*
X004678Y008423D01*
X004678Y008569D01*
X004622Y008705D01*
X004519Y008808D01*
X004383Y008864D01*
X004237Y008864D01*
X004102Y008808D01*
X003998Y008705D01*
X003942Y008569D01*
X003942Y008423D01*
X003998Y008288D01*
X004102Y008185D01*
X004105Y008183D01*
X004105Y007047D01*
X004211Y006941D01*
X005214Y005938D01*
X005202Y005933D01*
X005098Y005830D01*
X005042Y005694D01*
X005042Y005548D01*
X005098Y005413D01*
X005202Y005310D01*
X005337Y005254D01*
X005483Y005254D01*
X005619Y005310D01*
X005695Y005386D01*
X005667Y005319D01*
X005667Y005173D01*
X005723Y005038D01*
X005827Y004935D01*
X005855Y004923D01*
X005855Y004672D01*
X005961Y004566D01*
X006077Y004451D01*
X005983Y004489D01*
X005837Y004489D01*
X005702Y004433D01*
X005598Y004330D01*
X005542Y004194D01*
X005542Y004048D01*
X005598Y003913D01*
X005702Y003810D01*
X005837Y003754D01*
X005983Y003754D01*
X006012Y003765D01*
X006086Y003691D01*
X006235Y003691D01*
X006461Y003691D01*
X007336Y002816D01*
X007485Y002816D01*
X010961Y002816D01*
X012086Y001691D01*
X012235Y001691D01*
X013042Y001691D01*
X013042Y001673D01*
X013098Y001538D01*
X013202Y001435D01*
X013337Y001379D01*
X013483Y001379D01*
X013619Y001435D01*
X013722Y001538D01*
X013778Y001673D01*
X013778Y001691D01*
X016586Y001691D01*
X016929Y001348D01*
X016917Y001319D01*
X016917Y001173D01*
X016973Y001038D01*
X017077Y000935D01*
X017212Y000879D01*
X017358Y000879D01*
X017494Y000935D01*
X017597Y001038D01*
X017609Y001066D01*
X017643Y001066D01*
X017643Y000956D01*
X017720Y000880D01*
X018142Y000880D01*
X018218Y000956D01*
X018218Y001536D01*
X018193Y001562D02*
X018355Y001562D01*
X018611Y001562D02*
X018668Y001562D01*
X018668Y001463D02*
X018611Y001463D01*
X018611Y001364D02*
X018668Y001364D01*
X018668Y001167D02*
X018611Y001167D01*
X018611Y001069D02*
X018668Y001069D01*
X018668Y000970D02*
X018611Y000970D01*
X018611Y000872D02*
X018668Y000872D01*
X018422Y000872D02*
X000310Y000872D01*
X000310Y000970D02*
X017041Y000970D01*
X016961Y001069D02*
X000310Y001069D01*
X000310Y001167D02*
X016920Y001167D01*
X016917Y001266D02*
X000310Y001266D01*
X000310Y001364D02*
X016913Y001364D01*
X016814Y001463D02*
X013647Y001463D01*
X013732Y001562D02*
X016715Y001562D01*
X016617Y001660D02*
X013773Y001660D01*
X013535Y001871D02*
X013410Y001746D01*
X013535Y001871D02*
X016660Y001871D01*
X017285Y001246D01*
X017931Y001246D01*
X017931Y001246D01*
X018218Y001167D02*
X018332Y001167D01*
X018332Y001069D02*
X018218Y001069D01*
X018218Y000970D02*
X018337Y000970D01*
X017643Y000970D02*
X017529Y000970D01*
X017589Y001463D02*
X017643Y001463D01*
X017669Y001562D02*
X017485Y001562D01*
X017126Y001660D02*
X019005Y001660D01*
X019005Y001562D02*
X018925Y001562D01*
X018947Y001463D02*
X019005Y001463D01*
X019005Y001364D02*
X018947Y001364D01*
X019005Y001759D02*
X017027Y001759D01*
X016929Y001857D02*
X019005Y001857D01*
X019005Y001956D02*
X016830Y001956D01*
X016723Y002054D02*
X019005Y002054D01*
X019005Y002153D02*
X016821Y002153D01*
X016920Y002251D02*
X019005Y002251D01*
X019005Y002350D02*
X016965Y002350D01*
X017007Y002448D02*
X019005Y002448D01*
X019005Y002547D02*
X017101Y002547D01*
X017142Y002646D02*
X019005Y002646D01*
X019005Y002744D02*
X017153Y002744D01*
X017143Y002843D02*
X019005Y002843D01*
X019005Y002941D02*
X017103Y002941D01*
X017012Y003040D02*
X019005Y003040D01*
X019005Y003138D02*
X012132Y003138D01*
X011996Y003040D02*
X015684Y003040D01*
X015593Y002941D02*
X012095Y002941D01*
X012193Y002843D02*
X015552Y002843D01*
X015542Y002744D02*
X012292Y002744D01*
X012391Y002646D02*
X015554Y002646D01*
X015660Y002371D02*
X015910Y002621D01*
X015910Y002746D01*
X016278Y002744D02*
X016417Y002744D01*
X016427Y002843D02*
X016268Y002843D01*
X016228Y002941D02*
X016468Y002941D01*
X016559Y003040D02*
X016137Y003040D01*
X016267Y002646D02*
X016429Y002646D01*
X016470Y002547D02*
X016226Y002547D01*
X016132Y002448D02*
X016563Y002448D01*
X016509Y002350D02*
X015893Y002350D01*
X015660Y002371D02*
X012410Y002371D01*
X011285Y003496D01*
X007660Y003496D01*
X006474Y004683D01*
X006474Y005433D01*
X005535Y006246D01*
X005349Y006433D01*
X005349Y007183D01*
X005664Y006981D02*
X005819Y006981D01*
X005705Y007080D02*
X008260Y007080D01*
X008358Y006981D02*
X006002Y006981D01*
X006169Y006883D02*
X008417Y006883D01*
X008417Y006922D02*
X008417Y006798D01*
X008473Y006663D01*
X008577Y006560D01*
X008675Y006519D01*
X008555Y006519D01*
X008551Y006528D01*
X008442Y006637D01*
X008300Y006696D01*
X008146Y006696D01*
X008003Y006637D01*
X007894Y006528D01*
X007835Y006386D01*
X007835Y006232D01*
X007894Y006089D01*
X008003Y005980D01*
X008146Y005921D01*
X008300Y005921D01*
X008442Y005980D01*
X008551Y006089D01*
X008555Y006099D01*
X008948Y006099D01*
X009122Y006099D01*
X009810Y006786D01*
X009933Y006909D01*
X009933Y011409D01*
X009933Y011583D01*
X009245Y012271D01*
X009122Y012394D01*
X007560Y012394D01*
X007005Y012949D01*
X007035Y013022D01*
X007035Y013221D01*
X006959Y013405D01*
X006818Y013545D01*
X006635Y013621D01*
X006436Y013621D01*
X006635Y013621D01*
X006818Y013697D01*
X006959Y013838D01*
X007035Y014022D01*
X007035Y014221D01*
X006959Y014405D01*
X006818Y014545D01*
X006635Y014621D01*
X006436Y014621D01*
X006252Y014545D01*
X006111Y014405D01*
X006035Y014221D01*
X006035Y014022D01*
X006111Y013838D01*
X006252Y013697D01*
X006436Y013621D01*
X006252Y013545D01*
X006111Y013405D01*
X006035Y013221D01*
X006035Y013022D01*
X006111Y012838D01*
X006252Y012697D01*
X006436Y012621D01*
X006635Y012621D01*
X006708Y012652D01*
X007386Y011974D01*
X007560Y011974D01*
X008948Y011974D01*
X009513Y011409D01*
X009513Y007083D01*
X009100Y006671D01*
X009153Y006798D01*
X009153Y006944D01*
X009097Y007080D01*
X009509Y007080D01*
X009513Y007179D02*
X008998Y007179D01*
X008994Y007183D02*
X008858Y007239D01*
X008712Y007239D01*
X008640Y007209D01*
X008610Y007239D01*
X008282Y007566D01*
X008296Y007566D01*
X008431Y007622D01*
X008535Y007726D01*
X008591Y007861D01*
X008591Y008007D01*
X008535Y008142D01*
X008431Y008246D01*
X008296Y008302D01*
X008150Y008302D01*
X008121Y008290D01*
X007340Y009071D01*
X007340Y009984D01*
X007340Y010094D01*
X007410Y010163D01*
X007466Y010298D01*
X007466Y010444D01*
X007410Y010580D01*
X007306Y010683D01*
X007171Y010739D01*
X007025Y010739D01*
X006889Y010683D01*
X006786Y010580D01*
X006730Y010444D01*
X006730Y010298D01*
X006786Y010163D01*
X006889Y010060D01*
X006980Y010022D01*
X006980Y009984D01*
X006980Y009931D01*
X006641Y010270D01*
X006653Y010298D01*
X006653Y010444D01*
X006597Y010580D01*
X006494Y010683D01*
X006358Y010739D01*
X006212Y010739D01*
X006199Y010734D01*
X006116Y010816D01*
X007211Y010816D01*
X007554Y010473D01*
X007542Y010444D01*
X007542Y010298D01*
X007598Y010163D01*
X007702Y010060D01*
X007837Y010004D01*
X007983Y010004D01*
X008119Y010060D01*
X008222Y010163D01*
X008278Y010298D01*
X008278Y010444D01*
X008239Y010538D01*
X008304Y010473D01*
X008292Y010444D01*
X008292Y010298D01*
X008348Y010163D01*
X008452Y010060D01*
X008587Y010004D01*
X008733Y010004D01*
X008869Y010060D01*
X008972Y010163D01*
X009028Y010298D01*
X009028Y010444D01*
X008972Y010580D01*
X008869Y010683D01*
X008733Y010739D01*
X008587Y010739D01*
X008559Y010727D01*
X007965Y011321D01*
X007860Y011426D01*
X002610Y011426D01*
X001840Y012196D01*
X001840Y012621D01*
X002117Y012621D01*
X002410Y012914D01*
X002703Y012621D01*
X003117Y012621D01*
X003410Y012914D01*
X003410Y013328D01*
X003117Y013621D01*
X002703Y013621D01*
X002410Y013328D01*
X002410Y012914D01*
X002410Y013328D01*
X002117Y013621D01*
X001703Y013621D01*
X001590Y013508D01*
X001590Y013547D01*
X001684Y013641D01*
X001703Y013621D01*
X002117Y013621D01*
X002410Y013914D01*
X002703Y013621D01*
X003117Y013621D01*
X003410Y013914D01*
X003410Y014328D01*
X003117Y014621D01*
X002703Y014621D01*
X002410Y014328D01*
X002410Y013914D01*
X002410Y014328D01*
X002117Y014621D01*
X001703Y014621D01*
X001424Y014343D01*
X001126Y014641D01*
X000960Y014641D01*
X000960Y014171D01*
X000860Y014171D01*
X000860Y014071D01*
X000390Y014071D01*
X000390Y013906D01*
X000675Y013621D01*
X000486Y013621D01*
X000410Y013545D01*
X000410Y012697D01*
X000486Y012621D01*
X000980Y012621D01*
X000980Y011797D01*
X001086Y011691D01*
X002211Y010566D01*
X002360Y010566D01*
X005857Y010566D01*
X005935Y010488D01*
X005917Y010444D01*
X005917Y010298D01*
X005973Y010163D01*
X006077Y010060D01*
X006212Y010004D01*
X006358Y010004D01*
X006387Y010015D01*
X006730Y009672D01*
X006730Y009008D01*
X006730Y008859D01*
X007543Y008047D01*
X007543Y007946D01*
X007543Y007797D01*
X008417Y006922D01*
X008423Y006784D02*
X006241Y006784D01*
X006278Y006686D02*
X008120Y006686D01*
X007953Y006587D02*
X006278Y006587D01*
X006253Y006489D02*
X006711Y006489D01*
X006859Y006489D02*
X007878Y006489D01*
X007837Y006390D02*
X007036Y006390D01*
X007113Y006292D02*
X007835Y006292D01*
X007851Y006193D02*
X007153Y006193D01*
X007153Y006095D02*
X007892Y006095D01*
X007988Y005996D02*
X007131Y005996D01*
X007081Y005897D02*
X019005Y005897D01*
X019005Y005799D02*
X007112Y005799D01*
X007211Y005700D02*
X019005Y005700D01*
X019005Y005602D02*
X007215Y005602D01*
X007215Y005503D02*
X019005Y005503D01*
X019005Y005405D02*
X007215Y005405D01*
X007215Y005306D02*
X019005Y005306D01*
X019005Y005208D02*
X007215Y005208D01*
X007215Y005109D02*
X019005Y005109D01*
X019005Y005011D02*
X007215Y005011D01*
X007249Y004912D02*
X019005Y004912D01*
X019005Y004814D02*
X007348Y004814D01*
X007446Y004715D02*
X019005Y004715D01*
X019005Y004616D02*
X007545Y004616D01*
X007643Y004518D02*
X019005Y004518D01*
X019005Y004419D02*
X009882Y004419D01*
X009976Y004321D02*
X019005Y004321D01*
X019005Y004222D02*
X010016Y004222D01*
X010028Y004124D02*
X019005Y004124D01*
X019005Y004025D02*
X010018Y004025D01*
X009978Y003927D02*
X019005Y003927D01*
X019005Y003828D02*
X012195Y003828D01*
X012322Y003730D02*
X019005Y003730D01*
X019005Y003631D02*
X012378Y003631D01*
X012403Y003532D02*
X019005Y003532D01*
X019005Y003434D02*
X012403Y003434D01*
X012367Y003335D02*
X019005Y003335D01*
X019005Y003237D02*
X012296Y003237D01*
X012035Y003496D02*
X011660Y003496D01*
X011410Y003746D01*
X007785Y003746D01*
X006785Y004746D01*
X006785Y005496D01*
X006660Y005621D01*
X005910Y006246D01*
X005910Y006621D01*
X005567Y006489D02*
X005547Y006489D01*
X005542Y006587D02*
X005529Y006587D01*
X005529Y006686D02*
X005542Y006686D01*
X005529Y006784D02*
X005580Y006784D01*
X005569Y006883D02*
X005652Y006883D01*
X005717Y007179D02*
X008161Y007179D01*
X008062Y007277D02*
X005708Y007277D01*
X005667Y007376D02*
X007964Y007376D01*
X007865Y007474D02*
X005577Y007474D01*
X005120Y007474D02*
X004465Y007474D01*
X004465Y007376D02*
X005031Y007376D01*
X004990Y007277D02*
X004465Y007277D01*
X004482Y007179D02*
X004981Y007179D01*
X004993Y007080D02*
X004581Y007080D01*
X004680Y006981D02*
X005034Y006981D01*
X005128Y006883D02*
X004778Y006883D01*
X004877Y006784D02*
X005169Y006784D01*
X005169Y006686D02*
X004975Y006686D01*
X005074Y006587D02*
X005169Y006587D01*
X004860Y006292D02*
X001197Y006292D01*
X001193Y006295D02*
X001010Y006371D01*
X000811Y006371D01*
X000627Y006295D01*
X000486Y006155D01*
X000410Y005971D01*
X000410Y005772D01*
X000486Y005588D01*
X000627Y005447D01*
X000811Y005371D01*
X001010Y005371D01*
X000811Y005371D01*
X000627Y005295D01*
X000486Y005155D01*
X000410Y004971D01*
X000410Y004772D01*
X000486Y004588D01*
X000627Y004447D01*
X000811Y004371D01*
X001010Y004371D01*
X001193Y004447D01*
X001334Y004588D01*
X001410Y004772D01*
X001410Y004971D01*
X001334Y005155D01*
X001193Y005295D01*
X001010Y005371D01*
X001193Y005447D01*
X001334Y005588D01*
X001410Y005772D01*
X001410Y005971D01*
X001334Y006155D01*
X001193Y006295D01*
X001296Y006193D02*
X004959Y006193D01*
X005057Y006095D02*
X001359Y006095D01*
X001400Y005996D02*
X005156Y005996D01*
X005166Y005897D02*
X001410Y005897D01*
X001410Y005799D02*
X005086Y005799D01*
X005045Y005700D02*
X001381Y005700D01*
X001340Y005602D02*
X005042Y005602D01*
X005061Y005503D02*
X001249Y005503D01*
X001090Y005405D02*
X005107Y005405D01*
X005210Y005306D02*
X001167Y005306D01*
X001281Y005208D02*
X005667Y005208D01*
X005667Y005306D02*
X005611Y005306D01*
X005694Y005109D02*
X001353Y005109D01*
X001394Y005011D02*
X005751Y005011D01*
X005855Y004912D02*
X001410Y004912D01*
X001410Y004814D02*
X005855Y004814D01*
X005855Y004715D02*
X001387Y004715D01*
X001346Y004616D02*
X005911Y004616D01*
X006009Y004518D02*
X001264Y004518D01*
X001126Y004419D02*
X005688Y004419D01*
X005595Y004321D02*
X000310Y004321D01*
X000310Y004419D02*
X000695Y004419D01*
X000557Y004518D02*
X000310Y004518D01*
X000310Y004616D02*
X000475Y004616D01*
X000434Y004715D02*
X000310Y004715D01*
X000310Y004814D02*
X000410Y004814D01*
X000410Y004912D02*
X000310Y004912D01*
X000310Y005011D02*
X000427Y005011D01*
X000468Y005109D02*
X000310Y005109D01*
X000310Y005208D02*
X000539Y005208D01*
X000654Y005306D02*
X000310Y005306D01*
X000310Y005405D02*
X000730Y005405D01*
X000571Y005503D02*
X000310Y005503D01*
X000310Y005602D02*
X000481Y005602D01*
X000440Y005700D02*
X000310Y005700D01*
X000310Y005799D02*
X000410Y005799D01*
X000410Y005897D02*
X000310Y005897D01*
X000310Y005996D02*
X000421Y005996D01*
X000462Y006095D02*
X000310Y006095D01*
X000310Y006193D02*
X000525Y006193D01*
X000623Y006292D02*
X000310Y006292D01*
X000310Y006390D02*
X004762Y006390D01*
X004663Y006489D02*
X000310Y006489D01*
X000310Y006587D02*
X004565Y006587D01*
X004466Y006686D02*
X000310Y006686D01*
X000310Y006784D02*
X004368Y006784D01*
X004269Y006883D02*
X000310Y006883D01*
X000310Y006981D02*
X004171Y006981D01*
X004211Y006941D02*
X004211Y006941D01*
X004105Y007080D02*
X000310Y007080D01*
X000310Y007179D02*
X004105Y007179D01*
X004105Y007277D02*
X000310Y007277D01*
X000310Y007376D02*
X004105Y007376D01*
X004105Y007474D02*
X000310Y007474D01*
X000310Y007573D02*
X004105Y007573D01*
X004105Y007671D02*
X000310Y007671D01*
X000310Y007770D02*
X004105Y007770D01*
X004105Y007868D02*
X000310Y007868D01*
X000310Y007967D02*
X004105Y007967D01*
X004105Y008065D02*
X000310Y008065D01*
X000310Y008164D02*
X004105Y008164D01*
X004024Y008263D02*
X000310Y008263D01*
X000310Y008361D02*
X003968Y008361D01*
X003942Y008460D02*
X000310Y008460D01*
X000310Y008558D02*
X003942Y008558D01*
X003979Y008657D02*
X000310Y008657D01*
X000310Y008755D02*
X004049Y008755D01*
X004212Y008854D02*
X000310Y008854D01*
X000310Y008952D02*
X006730Y008952D01*
X006736Y008854D02*
X004408Y008854D01*
X004571Y008755D02*
X006834Y008755D01*
X006933Y008657D02*
X004642Y008657D01*
X004678Y008558D02*
X007031Y008558D01*
X007130Y008460D02*
X004678Y008460D01*
X004652Y008361D02*
X007228Y008361D01*
X007327Y008263D02*
X004597Y008263D01*
X004469Y008164D02*
X007426Y008164D01*
X007524Y008065D02*
X004465Y008065D01*
X004465Y007967D02*
X007543Y007967D01*
X007543Y007868D02*
X004465Y007868D01*
X004465Y007770D02*
X007570Y007770D01*
X007668Y007671D02*
X004465Y007671D01*
X004465Y007573D02*
X007767Y007573D01*
X007723Y007871D02*
X008535Y007059D01*
X008723Y006871D01*
X008785Y006871D01*
X008464Y006686D02*
X008325Y006686D01*
X008492Y006587D02*
X008549Y006587D01*
X008553Y006095D02*
X019005Y006095D01*
X019005Y006193D02*
X009216Y006193D01*
X009315Y006292D02*
X019005Y006292D01*
X019005Y006390D02*
X009414Y006390D01*
X009512Y006489D02*
X019005Y006489D01*
X019005Y006587D02*
X009611Y006587D01*
X009709Y006686D02*
X019005Y006686D01*
X019005Y006784D02*
X009808Y006784D01*
X009906Y006883D02*
X019005Y006883D01*
X019005Y006981D02*
X009933Y006981D01*
X009933Y007080D02*
X019005Y007080D01*
X019005Y007179D02*
X009933Y007179D01*
X009933Y007277D02*
X019005Y007277D01*
X019005Y007376D02*
X017898Y007376D01*
X017815Y007341D02*
X018102Y007460D01*
X018321Y007680D01*
X018440Y007966D01*
X018440Y008276D01*
X018321Y008563D01*
X018102Y008782D01*
X017815Y008901D01*
X017505Y008901D01*
X017218Y008782D01*
X016999Y008563D01*
X016880Y008276D01*
X016880Y007966D01*
X016999Y007680D01*
X017218Y007460D01*
X017505Y007341D01*
X017815Y007341D01*
X018116Y007474D02*
X019005Y007474D01*
X019005Y007573D02*
X018215Y007573D01*
X018313Y007671D02*
X019005Y007671D01*
X019005Y007770D02*
X018359Y007770D01*
X018400Y007868D02*
X019005Y007868D01*
X019005Y007967D02*
X018440Y007967D01*
X018440Y008065D02*
X019005Y008065D01*
X019005Y008164D02*
X018440Y008164D01*
X018440Y008263D02*
X019005Y008263D01*
X019005Y008361D02*
X018405Y008361D01*
X018364Y008460D02*
X019005Y008460D01*
X019005Y008558D02*
X018323Y008558D01*
X018228Y008657D02*
X019005Y008657D01*
X019005Y008755D02*
X018129Y008755D01*
X017930Y008854D02*
X019005Y008854D01*
X019005Y008952D02*
X009933Y008952D01*
X009933Y008854D02*
X017391Y008854D01*
X017191Y008755D02*
X009933Y008755D01*
X009933Y008657D02*
X017093Y008657D01*
X016997Y008558D02*
X009933Y008558D01*
X009933Y008460D02*
X016956Y008460D01*
X016915Y008361D02*
X009933Y008361D01*
X009933Y008263D02*
X016880Y008263D01*
X016880Y008164D02*
X009933Y008164D01*
X009933Y008065D02*
X016880Y008065D01*
X016880Y007967D02*
X009933Y007967D01*
X009933Y007868D02*
X016921Y007868D01*
X016962Y007770D02*
X009933Y007770D01*
X009933Y007671D02*
X017007Y007671D01*
X017106Y007573D02*
X009933Y007573D01*
X009933Y007474D02*
X017204Y007474D01*
X017422Y007376D02*
X009933Y007376D01*
X009513Y007376D02*
X008473Y007376D01*
X008374Y007474D02*
X009513Y007474D01*
X009513Y007573D02*
X008312Y007573D01*
X008480Y007671D02*
X009513Y007671D01*
X009513Y007770D02*
X008553Y007770D01*
X008591Y007868D02*
X009513Y007868D01*
X009513Y007967D02*
X008591Y007967D01*
X008566Y008065D02*
X009513Y008065D01*
X009513Y008164D02*
X008513Y008164D01*
X008390Y008263D02*
X009513Y008263D01*
X009513Y008361D02*
X008050Y008361D01*
X007951Y008460D02*
X009513Y008460D01*
X009513Y008558D02*
X007853Y008558D01*
X007754Y008657D02*
X009513Y008657D01*
X009513Y008755D02*
X007656Y008755D01*
X007557Y008854D02*
X009513Y008854D01*
X009513Y008952D02*
X007459Y008952D01*
X007360Y009051D02*
X009513Y009051D01*
X009513Y009149D02*
X007340Y009149D01*
X007340Y009248D02*
X009513Y009248D01*
X009513Y009346D02*
X007340Y009346D01*
X007340Y009445D02*
X009513Y009445D01*
X009513Y009544D02*
X007340Y009544D01*
X007340Y009642D02*
X009513Y009642D01*
X009513Y009741D02*
X007340Y009741D01*
X007340Y009839D02*
X009513Y009839D01*
X009513Y009938D02*
X007340Y009938D01*
X007340Y010036D02*
X007758Y010036D01*
X007627Y010135D02*
X007381Y010135D01*
X007439Y010233D02*
X007569Y010233D01*
X007542Y010332D02*
X007466Y010332D01*
X007466Y010430D02*
X007542Y010430D01*
X007498Y010529D02*
X007431Y010529D01*
X007399Y010628D02*
X007362Y010628D01*
X007301Y010726D02*
X007202Y010726D01*
X006993Y010726D02*
X006390Y010726D01*
X006549Y010628D02*
X006834Y010628D01*
X006765Y010529D02*
X006618Y010529D01*
X006653Y010430D02*
X006730Y010430D01*
X006730Y010332D02*
X006653Y010332D01*
X006678Y010233D02*
X006757Y010233D01*
X006776Y010135D02*
X006814Y010135D01*
X006875Y010036D02*
X006946Y010036D01*
X006973Y009938D02*
X006980Y009938D01*
X007160Y010059D02*
X007160Y010309D01*
X007098Y010371D01*
X007160Y010059D02*
X007160Y008996D01*
X008223Y007934D01*
X007723Y007871D02*
X007723Y008121D01*
X006910Y008934D01*
X006910Y009746D01*
X006285Y010371D01*
X006285Y010392D01*
X005931Y010746D01*
X002285Y010746D01*
X001160Y011871D01*
X001160Y012996D01*
X001035Y013121D01*
X000910Y013121D01*
X000410Y013091D02*
X000310Y013091D01*
X000310Y012993D02*
X000410Y012993D01*
X000410Y012894D02*
X000310Y012894D01*
X000310Y012796D02*
X000410Y012796D01*
X000411Y012697D02*
X000310Y012697D01*
X000310Y012598D02*
X000980Y012598D01*
X000980Y012500D02*
X000310Y012500D01*
X000310Y012401D02*
X000980Y012401D01*
X000980Y012303D02*
X000310Y012303D01*
X000310Y012204D02*
X000980Y012204D01*
X000980Y012106D02*
X000310Y012106D01*
X000310Y012007D02*
X000980Y012007D01*
X000980Y011909D02*
X000310Y011909D01*
X000310Y011810D02*
X000980Y011810D01*
X001065Y011712D02*
X000310Y011712D01*
X000310Y011613D02*
X001164Y011613D01*
X001263Y011514D02*
X000310Y011514D01*
X000310Y011416D02*
X001361Y011416D01*
X001460Y011317D02*
X000310Y011317D01*
X000310Y011219D02*
X001558Y011219D01*
X001657Y011120D02*
X000310Y011120D01*
X000310Y011022D02*
X001755Y011022D01*
X001854Y010923D02*
X000310Y010923D01*
X000310Y010825D02*
X001952Y010825D01*
X002051Y010726D02*
X001325Y010726D01*
X001259Y010754D02*
X001393Y010698D01*
X001497Y010595D01*
X001552Y010460D01*
X001552Y010314D01*
X001497Y010179D01*
X001393Y010076D01*
X001259Y010021D01*
X001113Y010021D01*
X000978Y010076D01*
X000875Y010179D01*
X000819Y010314D01*
X000819Y010460D01*
X000875Y010595D01*
X000978Y010698D01*
X001113Y010754D01*
X001259Y010754D01*
X001047Y010726D02*
X000310Y010726D01*
X000310Y010628D02*
X000908Y010628D01*
X000848Y010529D02*
X000310Y010529D01*
X000310Y010430D02*
X000819Y010430D01*
X000819Y010332D02*
X000310Y010332D01*
X000310Y010233D02*
X000853Y010233D01*
X000920Y010135D02*
X000310Y010135D01*
X000310Y010036D02*
X001075Y010036D01*
X001297Y010036D02*
X006133Y010036D01*
X006002Y010135D02*
X001452Y010135D01*
X001519Y010233D02*
X005944Y010233D01*
X005917Y010332D02*
X001552Y010332D01*
X001552Y010430D02*
X005917Y010430D01*
X005894Y010529D02*
X001524Y010529D01*
X001464Y010628D02*
X002149Y010628D01*
X002381Y011026D02*
X001410Y011996D01*
X001410Y013580D01*
X001440Y013651D02*
X001910Y014121D01*
X002277Y013781D02*
X002544Y013781D01*
X002642Y013682D02*
X002178Y013682D01*
X002155Y013584D02*
X002666Y013584D01*
X002567Y013485D02*
X002253Y013485D01*
X002352Y013387D02*
X002469Y013387D01*
X002410Y013288D02*
X002410Y013288D01*
X002410Y013190D02*
X002410Y013190D01*
X002410Y013091D02*
X002410Y013091D01*
X002410Y012993D02*
X002410Y012993D01*
X002390Y012894D02*
X002430Y012894D01*
X002529Y012796D02*
X002291Y012796D01*
X002193Y012697D02*
X002627Y012697D01*
X003193Y012697D02*
X006253Y012697D01*
X006154Y012796D02*
X003291Y012796D01*
X003390Y012894D02*
X006088Y012894D01*
X006047Y012993D02*
X003410Y012993D01*
X003410Y013091D02*
X006035Y013091D01*
X006035Y013190D02*
X003410Y013190D01*
X003410Y013288D02*
X006063Y013288D01*
X006104Y013387D02*
X003352Y013387D01*
X003253Y013485D02*
X006192Y013485D01*
X006345Y013584D02*
X003155Y013584D01*
X003178Y013682D02*
X006288Y013682D01*
X006169Y013781D02*
X003277Y013781D01*
X003375Y013879D02*
X006094Y013879D01*
X006053Y013978D02*
X003410Y013978D01*
X003410Y014077D02*
X006035Y014077D01*
X006035Y014175D02*
X003410Y014175D01*
X003410Y014274D02*
X006057Y014274D01*
X006098Y014372D02*
X003366Y014372D01*
X003268Y014471D02*
X006178Y014471D01*
X006310Y014569D02*
X003169Y014569D01*
X002651Y014569D02*
X002169Y014569D01*
X002268Y014471D02*
X002553Y014471D01*
X002454Y014372D02*
X002366Y014372D01*
X002410Y014274D02*
X002410Y014274D01*
X002410Y014175D02*
X002410Y014175D01*
X002410Y014077D02*
X002410Y014077D01*
X002410Y013978D02*
X002410Y013978D01*
X002375Y013879D02*
X002445Y013879D01*
X001666Y013584D02*
X001627Y013584D01*
X001439Y013651D02*
X001429Y013639D01*
X001421Y013625D01*
X001415Y013611D01*
X001411Y013596D01*
X001410Y013580D01*
X001411Y013596D01*
X001415Y013611D01*
X001421Y013625D01*
X001429Y013639D01*
X001439Y013651D01*
X001785Y013121D02*
X001910Y013121D01*
X001785Y013121D02*
X001660Y012996D01*
X001660Y012121D01*
X002535Y011246D01*
X007785Y011246D01*
X008660Y010371D01*
X009001Y010233D02*
X009513Y010233D01*
X009513Y010135D02*
X008944Y010135D01*
X008812Y010036D02*
X009513Y010036D01*
X009513Y010332D02*
X009028Y010332D01*
X009028Y010430D02*
X009513Y010430D01*
X009513Y010529D02*
X008993Y010529D01*
X008924Y010628D02*
X009513Y010628D01*
X009513Y010726D02*
X008765Y010726D01*
X008461Y010825D02*
X009513Y010825D01*
X009513Y010923D02*
X008363Y010923D01*
X008264Y011022D02*
X009513Y011022D01*
X009513Y011120D02*
X008166Y011120D01*
X008067Y011219D02*
X009513Y011219D01*
X009513Y011317D02*
X007969Y011317D01*
X007870Y011416D02*
X009506Y011416D01*
X009408Y011514D02*
X002522Y011514D01*
X002423Y011613D02*
X009309Y011613D01*
X009211Y011712D02*
X002325Y011712D01*
X002226Y011810D02*
X009112Y011810D01*
X009013Y011909D02*
X002127Y011909D01*
X002029Y012007D02*
X007352Y012007D01*
X007254Y012106D02*
X001930Y012106D01*
X001840Y012204D02*
X007155Y012204D01*
X007057Y012303D02*
X001840Y012303D01*
X001840Y012401D02*
X006958Y012401D01*
X006860Y012500D02*
X001840Y012500D01*
X001840Y012598D02*
X006761Y012598D01*
X007059Y012894D02*
X016963Y012894D01*
X016986Y012838D02*
X017127Y012697D01*
X017311Y012621D01*
X017510Y012621D01*
X017693Y012697D01*
X017834Y012838D01*
X017910Y013022D01*
X017910Y013221D01*
X017834Y013405D01*
X017693Y013545D01*
X017510Y013621D01*
X017311Y013621D01*
X017127Y013545D01*
X016986Y013405D01*
X016910Y013221D01*
X016910Y013022D01*
X016986Y012838D01*
X017029Y012796D02*
X007158Y012796D01*
X007257Y012697D02*
X017128Y012697D01*
X016922Y012993D02*
X007023Y012993D01*
X007035Y013091D02*
X016910Y013091D01*
X016910Y013190D02*
X007035Y013190D01*
X007007Y013288D02*
X016938Y013288D01*
X016979Y013387D02*
X006966Y013387D01*
X006878Y013485D02*
X017067Y013485D01*
X017220Y013584D02*
X006725Y013584D01*
X006782Y013682D02*
X017163Y013682D01*
X017127Y013697D02*
X017311Y013621D01*
X017510Y013621D01*
X017693Y013697D01*
X017834Y013838D01*
X017910Y014022D01*
X017910Y014221D01*
X017834Y014405D01*
X017693Y014545D01*
X017510Y014621D01*
X017311Y014621D01*
X017127Y014545D01*
X016986Y014405D01*
X016910Y014221D01*
X016910Y014022D01*
X016986Y013838D01*
X017127Y013697D01*
X017044Y013781D02*
X006902Y013781D01*
X006976Y013879D02*
X016969Y013879D01*
X016928Y013978D02*
X007017Y013978D01*
X007035Y014077D02*
X016910Y014077D01*
X016910Y014175D02*
X007035Y014175D01*
X007013Y014274D02*
X016932Y014274D01*
X016973Y014372D02*
X006973Y014372D01*
X006893Y014471D02*
X017053Y014471D01*
X017185Y014569D02*
X006760Y014569D01*
X007355Y012598D02*
X019005Y012598D01*
X019005Y012500D02*
X007454Y012500D01*
X007552Y012401D02*
X019005Y012401D01*
X019005Y012303D02*
X009213Y012303D01*
X009312Y012204D02*
X019005Y012204D01*
X019005Y012106D02*
X009410Y012106D01*
X009509Y012007D02*
X019005Y012007D01*
X019005Y011909D02*
X009607Y011909D01*
X009706Y011810D02*
X019005Y011810D01*
X019005Y011712D02*
X009804Y011712D01*
X009903Y011613D02*
X019005Y011613D01*
X019005Y011514D02*
X009933Y011514D01*
X009933Y011416D02*
X019005Y011416D01*
X019005Y011317D02*
X009933Y011317D01*
X009933Y011219D02*
X019005Y011219D01*
X019005Y011120D02*
X009933Y011120D01*
X009933Y011022D02*
X019005Y011022D01*
X019005Y010923D02*
X009933Y010923D01*
X009933Y010825D02*
X019005Y010825D01*
X019005Y010726D02*
X010774Y010726D01*
X010708Y010754D02*
X010842Y010698D01*
X010945Y010595D01*
X011001Y010460D01*
X011001Y010314D01*
X010945Y010179D01*
X010842Y010076D01*
X010708Y010021D01*
X010562Y010021D01*
X010427Y010076D01*
X010324Y010179D01*
X010268Y010314D01*
X010268Y010460D01*
X010324Y010595D01*
X010427Y010698D01*
X010562Y010754D01*
X010708Y010754D01*
X010495Y010726D02*
X009933Y010726D01*
X009933Y010628D02*
X010357Y010628D01*
X010297Y010529D02*
X009933Y010529D01*
X009933Y010430D02*
X010268Y010430D01*
X010268Y010332D02*
X009933Y010332D01*
X009933Y010233D02*
X010302Y010233D01*
X010369Y010135D02*
X009933Y010135D01*
X009933Y010036D02*
X010524Y010036D01*
X010746Y010036D02*
X019005Y010036D01*
X019005Y009938D02*
X009933Y009938D01*
X009933Y009839D02*
X019005Y009839D01*
X019005Y009741D02*
X009933Y009741D01*
X009933Y009642D02*
X019005Y009642D01*
X019005Y009544D02*
X009933Y009544D01*
X009933Y009445D02*
X019005Y009445D01*
X019005Y009346D02*
X009933Y009346D01*
X009933Y009248D02*
X019005Y009248D01*
X019005Y009149D02*
X009933Y009149D01*
X009933Y009051D02*
X019005Y009051D01*
X019005Y010135D02*
X010901Y010135D01*
X010968Y010233D02*
X019005Y010233D01*
X019005Y010332D02*
X011001Y010332D01*
X011001Y010430D02*
X019005Y010430D01*
X019005Y010529D02*
X010973Y010529D01*
X010912Y010628D02*
X019005Y010628D01*
X019005Y012697D02*
X017692Y012697D01*
X017791Y012796D02*
X019005Y012796D01*
X019005Y012894D02*
X017857Y012894D01*
X017898Y012993D02*
X019005Y012993D01*
X019005Y013091D02*
X017910Y013091D01*
X017910Y013190D02*
X019005Y013190D01*
X019005Y013288D02*
X017882Y013288D01*
X017841Y013387D02*
X019005Y013387D01*
X019005Y013485D02*
X017753Y013485D01*
X017600Y013584D02*
X019005Y013584D01*
X019005Y013682D02*
X017657Y013682D01*
X017777Y013781D02*
X019005Y013781D01*
X019005Y013879D02*
X017851Y013879D01*
X017892Y013978D02*
X019005Y013978D01*
X019005Y014077D02*
X017910Y014077D01*
X017910Y014175D02*
X019005Y014175D01*
X019005Y014274D02*
X017888Y014274D01*
X017848Y014372D02*
X019005Y014372D01*
X019005Y014471D02*
X017768Y014471D01*
X017635Y014569D02*
X019005Y014569D01*
X019005Y014668D02*
X000310Y014668D01*
X000310Y014569D02*
X000623Y014569D01*
X000695Y014641D02*
X000390Y014337D01*
X000390Y014171D01*
X000860Y014171D01*
X000860Y014641D01*
X000695Y014641D01*
X000860Y014569D02*
X000960Y014569D01*
X000960Y014471D02*
X000860Y014471D01*
X000860Y014372D02*
X000960Y014372D01*
X000960Y014274D02*
X000860Y014274D01*
X000860Y014175D02*
X000960Y014175D01*
X000860Y014077D02*
X000310Y014077D01*
X000310Y014175D02*
X000390Y014175D01*
X000390Y014274D02*
X000310Y014274D01*
X000310Y014372D02*
X000426Y014372D01*
X000524Y014471D02*
X000310Y014471D01*
X000310Y013978D02*
X000390Y013978D01*
X000417Y013879D02*
X000310Y013879D01*
X000310Y013781D02*
X000515Y013781D01*
X000614Y013682D02*
X000310Y013682D01*
X000310Y013584D02*
X000449Y013584D01*
X000410Y013485D02*
X000310Y013485D01*
X000310Y013387D02*
X000410Y013387D01*
X000410Y013288D02*
X000310Y013288D01*
X000310Y013190D02*
X000410Y013190D01*
X001395Y014372D02*
X001454Y014372D01*
X001553Y014471D02*
X001296Y014471D01*
X001198Y014569D02*
X001651Y014569D01*
X002381Y011025D02*
X002393Y011015D01*
X002407Y011007D01*
X002421Y011001D01*
X002436Y010997D01*
X002452Y010996D01*
X007285Y010996D01*
X007910Y010371D01*
X008251Y010233D02*
X008319Y010233D01*
X008292Y010332D02*
X008278Y010332D01*
X008278Y010430D02*
X008292Y010430D01*
X008248Y010529D02*
X008243Y010529D01*
X008194Y010135D02*
X008377Y010135D01*
X008508Y010036D02*
X008062Y010036D01*
X006730Y009642D02*
X000310Y009642D01*
X000310Y009544D02*
X006730Y009544D01*
X006730Y009445D02*
X000310Y009445D01*
X000310Y009346D02*
X006730Y009346D01*
X006730Y009248D02*
X000310Y009248D01*
X000310Y009149D02*
X006730Y009149D01*
X006730Y009051D02*
X000310Y009051D01*
X000310Y009741D02*
X006661Y009741D01*
X006563Y009839D02*
X000310Y009839D01*
X000310Y009938D02*
X006464Y009938D01*
X004310Y008496D02*
X004285Y008471D01*
X004285Y007121D01*
X005410Y005996D01*
X005410Y005621D01*
X006035Y005246D02*
X006035Y004746D01*
X007535Y003246D01*
X011160Y003246D01*
X012285Y002121D01*
X016535Y002121D01*
X016785Y002371D01*
X016785Y002746D01*
X013535Y001871D02*
X012160Y001871D01*
X011035Y002996D01*
X007410Y002996D01*
X006535Y003871D01*
X006160Y003871D01*
X005910Y004121D01*
X005542Y004124D02*
X000310Y004124D01*
X000310Y004222D02*
X005554Y004222D01*
X005552Y004025D02*
X000310Y004025D01*
X000310Y003927D02*
X005593Y003927D01*
X005683Y003828D02*
X000310Y003828D01*
X000310Y003730D02*
X006047Y003730D01*
X006521Y003631D02*
X000310Y003631D01*
X000310Y003532D02*
X006620Y003532D01*
X006718Y003434D02*
X000310Y003434D01*
X000310Y003335D02*
X006817Y003335D01*
X006915Y003237D02*
X000310Y003237D01*
X000310Y003138D02*
X007014Y003138D01*
X007112Y003040D02*
X000310Y003040D01*
X000310Y002941D02*
X007211Y002941D01*
X007309Y002843D02*
X000310Y002843D01*
X000310Y002744D02*
X011033Y002744D01*
X011131Y002646D02*
X010863Y002646D01*
X010842Y002666D02*
X010708Y002722D01*
X010562Y002722D01*
X010427Y002666D01*
X010324Y002563D01*
X010268Y002429D01*
X010268Y002283D01*
X010324Y002148D01*
X010427Y002045D01*
X010562Y001989D01*
X010708Y001989D01*
X010842Y002045D01*
X010945Y002148D01*
X011001Y002283D01*
X011001Y002429D01*
X010945Y002563D01*
X010842Y002666D01*
X010952Y002547D02*
X011230Y002547D01*
X011329Y002448D02*
X010993Y002448D01*
X011001Y002350D02*
X011427Y002350D01*
X011526Y002251D02*
X010988Y002251D01*
X010947Y002153D02*
X011624Y002153D01*
X011723Y002054D02*
X010852Y002054D01*
X010418Y002054D02*
X001403Y002054D01*
X001393Y002045D02*
X001497Y002148D01*
X001552Y002283D01*
X001552Y002429D01*
X001497Y002563D01*
X001393Y002666D01*
X001259Y002722D01*
X001113Y002722D01*
X000978Y002666D01*
X000875Y002563D01*
X000819Y002429D01*
X000819Y002283D01*
X000875Y002148D01*
X000978Y002045D01*
X001113Y001989D01*
X001259Y001989D01*
X001393Y002045D01*
X001499Y002153D02*
X010322Y002153D01*
X010281Y002251D02*
X001539Y002251D01*
X001552Y002350D02*
X010268Y002350D01*
X010276Y002448D02*
X001544Y002448D01*
X001503Y002547D02*
X010317Y002547D01*
X010406Y002646D02*
X001414Y002646D01*
X000957Y002646D02*
X000310Y002646D01*
X000310Y002547D02*
X000868Y002547D01*
X000828Y002448D02*
X000310Y002448D01*
X000310Y002350D02*
X000819Y002350D01*
X000832Y002251D02*
X000310Y002251D01*
X000310Y002153D02*
X000873Y002153D01*
X000969Y002054D02*
X000310Y002054D01*
X000310Y001956D02*
X011821Y001956D01*
X011920Y001857D02*
X000310Y001857D01*
X000310Y001759D02*
X012018Y001759D01*
X013048Y001660D02*
X000310Y001660D01*
X000310Y001562D02*
X013089Y001562D01*
X013173Y001463D02*
X000310Y001463D01*
X006373Y006095D02*
X006417Y006095D01*
X006417Y006193D02*
X006255Y006193D01*
X006137Y006292D02*
X006458Y006292D01*
X006534Y006390D02*
X006199Y006390D01*
X006785Y006121D02*
X006785Y005871D01*
X007035Y005621D01*
X007035Y004871D01*
X007910Y003996D01*
X009535Y003996D01*
X009660Y004121D01*
X009304Y004222D02*
X007939Y004222D01*
X007840Y004321D02*
X009345Y004321D01*
X009438Y004419D02*
X007742Y004419D01*
X008458Y005996D02*
X019005Y005996D01*
X011875Y003828D02*
X011583Y003828D01*
X011682Y003730D02*
X011748Y003730D01*
X011898Y003138D02*
X011939Y003138D01*
X009115Y006686D02*
X009106Y006686D01*
X009147Y006784D02*
X009214Y006784D01*
X009153Y006883D02*
X009312Y006883D01*
X009411Y006981D02*
X009138Y006981D01*
X009097Y007080D02*
X008994Y007183D01*
X008610Y007239D02*
X008610Y007239D01*
X008571Y007277D02*
X009513Y007277D01*
D16*
X010035Y014246D03*
D17*
X008660Y010371D03*
X007910Y010371D03*
X007098Y010371D03*
X006285Y010371D03*
X004310Y008496D03*
X005349Y007183D03*
X005910Y006621D03*
X006785Y006121D03*
X006035Y005246D03*
X005410Y005621D03*
X005910Y004121D03*
X009660Y004121D03*
X012035Y003496D03*
X013410Y001746D03*
X015910Y002746D03*
X016785Y002746D03*
X017285Y001246D03*
X008785Y006871D03*
X008223Y007934D03*
D18*
X009723Y006996D02*
X009723Y011496D01*
X009035Y012184D01*
X007473Y012184D01*
X006535Y013121D01*
X009723Y006996D02*
X009035Y006309D01*
X008223Y006309D01*
M02*
