G75*
G70*
%OFA0B0*%
%FSLAX24Y24*%
%IPPOS*%
%LPD*%
%AMOC8*
5,1,8,0,0,1.08239X$1,22.5*
%
%ADD10R,0.0394X0.0866*%
%ADD11R,0.0500X0.0220*%
%ADD12R,0.0220X0.0500*%
%ADD13R,0.0880X0.0480*%
%ADD14R,0.0866X0.1417*%
%ADD15R,0.0630X0.0551*%
%ADD16R,0.0551X0.0472*%
%ADD17R,0.0472X0.0315*%
%ADD18R,0.0945X0.0945*%
%ADD19R,0.0315X0.0472*%
%ADD20R,0.0472X0.0217*%
%ADD21R,0.0276X0.0689*%
%ADD22R,0.0492X0.0591*%
%ADD23R,0.0591X0.0591*%
%ADD24R,0.0315X0.0591*%
%ADD25R,0.0571X0.0394*%
%ADD26R,0.0315X0.0551*%
%ADD27R,0.0394X0.0610*%
%ADD28R,0.0390X0.0272*%
%ADD29R,0.0272X0.0390*%
D10*
X000792Y001411D03*
X001580Y001411D03*
X002367Y001411D03*
X003154Y001411D03*
X003942Y001411D03*
X004729Y001411D03*
X005517Y001411D03*
X006304Y001411D03*
X007091Y001411D03*
X007879Y001411D03*
X008666Y001411D03*
X009454Y001411D03*
X010241Y001411D03*
X011028Y001411D03*
X011028Y003300D03*
X010241Y003300D03*
X009454Y003300D03*
X008666Y003300D03*
X007879Y003300D03*
X007091Y003300D03*
X006304Y003300D03*
X005517Y003300D03*
X004729Y003300D03*
X003942Y003300D03*
X003154Y003300D03*
X002367Y003300D03*
X001580Y003300D03*
X000792Y003300D03*
X000792Y009442D03*
X001580Y009442D03*
X002367Y009442D03*
X003154Y009442D03*
X003942Y009442D03*
X004729Y009442D03*
X005517Y009442D03*
X006304Y009442D03*
X007091Y009442D03*
X007879Y009442D03*
X008666Y009442D03*
X009454Y009442D03*
X010241Y009442D03*
X011028Y009442D03*
X011028Y011332D03*
X010241Y011332D03*
X009454Y011332D03*
X008666Y011332D03*
X007879Y011332D03*
X007091Y011332D03*
X006304Y011332D03*
X005517Y011332D03*
X004729Y011332D03*
X003942Y011332D03*
X003154Y011332D03*
X002367Y011332D03*
X001580Y011332D03*
X000792Y011332D03*
D11*
G36*
X005174Y008377D02*
X005526Y008025D01*
X005370Y007869D01*
X005018Y008221D01*
X005174Y008377D01*
G37*
G36*
X005397Y008600D02*
X005749Y008248D01*
X005593Y008092D01*
X005241Y008444D01*
X005397Y008600D01*
G37*
G36*
X004951Y008154D02*
X005303Y007802D01*
X005147Y007646D01*
X004795Y007998D01*
X004951Y008154D01*
G37*
G36*
X004729Y007932D02*
X005081Y007580D01*
X004925Y007424D01*
X004573Y007776D01*
X004729Y007932D01*
G37*
G36*
X004506Y007709D02*
X004858Y007357D01*
X004702Y007201D01*
X004350Y007553D01*
X004506Y007709D01*
G37*
G36*
X004283Y007486D02*
X004635Y007134D01*
X004479Y006978D01*
X004127Y007330D01*
X004283Y007486D01*
G37*
G36*
X004060Y007264D02*
X004412Y006912D01*
X004256Y006756D01*
X003904Y007108D01*
X004060Y007264D01*
G37*
G36*
X003838Y007041D02*
X004190Y006689D01*
X004034Y006533D01*
X003682Y006885D01*
X003838Y007041D01*
G37*
G36*
X006673Y005096D02*
X007025Y004744D01*
X006869Y004588D01*
X006517Y004940D01*
X006673Y005096D01*
G37*
G36*
X006896Y005319D02*
X007248Y004967D01*
X007092Y004811D01*
X006740Y005163D01*
X006896Y005319D01*
G37*
G36*
X007119Y005542D02*
X007471Y005190D01*
X007315Y005034D01*
X006963Y005386D01*
X007119Y005542D01*
G37*
G36*
X007341Y005764D02*
X007693Y005412D01*
X007537Y005256D01*
X007185Y005608D01*
X007341Y005764D01*
G37*
G36*
X007564Y005987D02*
X007916Y005635D01*
X007760Y005479D01*
X007408Y005831D01*
X007564Y005987D01*
G37*
G36*
X007787Y006210D02*
X008139Y005858D01*
X007983Y005702D01*
X007631Y006054D01*
X007787Y006210D01*
G37*
G36*
X006450Y004874D02*
X006802Y004522D01*
X006646Y004366D01*
X006294Y004718D01*
X006450Y004874D01*
G37*
G36*
X006228Y004651D02*
X006580Y004299D01*
X006424Y004143D01*
X006072Y004495D01*
X006228Y004651D01*
G37*
D12*
G36*
X005593Y004651D02*
X005749Y004495D01*
X005397Y004143D01*
X005241Y004299D01*
X005593Y004651D01*
G37*
G36*
X005370Y004874D02*
X005526Y004718D01*
X005174Y004366D01*
X005018Y004522D01*
X005370Y004874D01*
G37*
G36*
X005147Y005096D02*
X005303Y004940D01*
X004951Y004588D01*
X004795Y004744D01*
X005147Y005096D01*
G37*
G36*
X004925Y005319D02*
X005081Y005163D01*
X004729Y004811D01*
X004573Y004967D01*
X004925Y005319D01*
G37*
G36*
X004702Y005542D02*
X004858Y005386D01*
X004506Y005034D01*
X004350Y005190D01*
X004702Y005542D01*
G37*
G36*
X004479Y005764D02*
X004635Y005608D01*
X004283Y005256D01*
X004127Y005412D01*
X004479Y005764D01*
G37*
G36*
X004256Y005987D02*
X004412Y005831D01*
X004060Y005479D01*
X003904Y005635D01*
X004256Y005987D01*
G37*
G36*
X004034Y006210D02*
X004190Y006054D01*
X003838Y005702D01*
X003682Y005858D01*
X004034Y006210D01*
G37*
G36*
X006646Y008377D02*
X006802Y008221D01*
X006450Y007869D01*
X006294Y008025D01*
X006646Y008377D01*
G37*
G36*
X006424Y008600D02*
X006580Y008444D01*
X006228Y008092D01*
X006072Y008248D01*
X006424Y008600D01*
G37*
G36*
X006869Y008154D02*
X007025Y007998D01*
X006673Y007646D01*
X006517Y007802D01*
X006869Y008154D01*
G37*
G36*
X007092Y007932D02*
X007248Y007776D01*
X006896Y007424D01*
X006740Y007580D01*
X007092Y007932D01*
G37*
G36*
X007315Y007709D02*
X007471Y007553D01*
X007119Y007201D01*
X006963Y007357D01*
X007315Y007709D01*
G37*
G36*
X007537Y007486D02*
X007693Y007330D01*
X007341Y006978D01*
X007185Y007134D01*
X007537Y007486D01*
G37*
G36*
X007760Y007264D02*
X007916Y007108D01*
X007564Y006756D01*
X007408Y006912D01*
X007760Y007264D01*
G37*
G36*
X007983Y007041D02*
X008139Y006885D01*
X007787Y006533D01*
X007631Y006689D01*
X007983Y007041D01*
G37*
D13*
X014755Y012336D03*
X014755Y013246D03*
X014755Y014156D03*
D14*
X012315Y013246D03*
D15*
X011035Y013070D03*
X011035Y014173D03*
X016035Y014173D03*
X016035Y013070D03*
D16*
X009035Y013031D03*
X009035Y014212D03*
D17*
X008160Y013601D03*
X008160Y012892D03*
X005160Y012767D03*
X005160Y013476D03*
X003660Y008476D03*
X003660Y007767D03*
X008223Y005038D03*
X008223Y004330D03*
D18*
X010473Y005216D03*
X010473Y007027D03*
D19*
X011431Y006996D03*
X012140Y006996D03*
X012140Y005246D03*
X011431Y005246D03*
X009640Y008621D03*
X008931Y008621D03*
X002140Y008496D03*
X001431Y008496D03*
X012868Y001184D03*
X013577Y001184D03*
D20*
X001797Y006997D03*
X001797Y007745D03*
X000773Y007745D03*
X000773Y007371D03*
X000773Y006997D03*
D21*
X014660Y002027D03*
X015093Y002027D03*
X015526Y002027D03*
X015959Y002027D03*
X016393Y002027D03*
X016826Y002027D03*
X017259Y002027D03*
X017692Y002027D03*
D22*
X014178Y002076D03*
D23*
X018656Y002076D03*
D24*
X014089Y005068D03*
D25*
X014217Y005659D03*
D26*
X018794Y005324D03*
D27*
X018641Y006279D03*
D28*
X013418Y002995D03*
X013418Y002621D03*
X013418Y002247D03*
X012398Y002247D03*
X012398Y002995D03*
D29*
G36*
X008024Y007411D02*
X008217Y007604D01*
X008492Y007329D01*
X008299Y007136D01*
X008024Y007411D01*
G37*
G36*
X008553Y007940D02*
X008746Y008133D01*
X009021Y007858D01*
X008828Y007665D01*
X008553Y007940D01*
G37*
G36*
X007567Y008396D02*
X007760Y008589D01*
X008035Y008314D01*
X007842Y008121D01*
X007567Y008396D01*
G37*
G36*
X007303Y008132D02*
X007496Y008325D01*
X007771Y008050D01*
X007578Y007857D01*
X007303Y008132D01*
G37*
G36*
X007832Y008661D02*
X008025Y008854D01*
X008300Y008579D01*
X008107Y008386D01*
X007832Y008661D01*
G37*
M02*
