G75*
G70*
%OFA0B0*%
%FSLAX24Y24*%
%IPPOS*%
%LPD*%
%AMOC8*
5,1,8,0,0,1.08239X$1,22.5*
%
%ADD10C,0.1340*%
%ADD11C,0.0513*%
%ADD12R,0.0820X0.0820*%
%ADD13OC8,0.0820*%
%ADD14C,0.0820*%
%ADD15C,0.0083*%
%ADD16C,0.0595*%
%ADD17C,0.0634*%
%ADD18C,0.0556*%
D10*
X017660Y008121D03*
D11*
X001186Y002356D03*
X010635Y002356D03*
X010635Y010387D03*
X001186Y010387D03*
D12*
X000910Y013121D03*
D13*
X001910Y013121D03*
X002910Y013121D03*
X002910Y014121D03*
X001910Y014121D03*
X000910Y014121D03*
D14*
X006535Y014121D03*
X006535Y013121D03*
X000910Y005871D03*
X000910Y004871D03*
X017410Y013121D03*
X017410Y014121D03*
D15*
X017775Y001011D02*
X018087Y001011D01*
X017775Y001011D02*
X017775Y001481D01*
X018087Y001481D01*
X018087Y001011D01*
X018087Y001093D02*
X017775Y001093D01*
X017775Y001175D02*
X018087Y001175D01*
X018087Y001257D02*
X017775Y001257D01*
X017775Y001339D02*
X018087Y001339D01*
X018087Y001421D02*
X017775Y001421D01*
X018484Y001011D02*
X018796Y001011D01*
X018484Y001011D02*
X018484Y001481D01*
X018796Y001481D01*
X018796Y001011D01*
X018796Y001093D02*
X018484Y001093D01*
X018484Y001175D02*
X018796Y001175D01*
X018796Y001257D02*
X018484Y001257D01*
X018484Y001339D02*
X018796Y001339D01*
X018796Y001421D02*
X018484Y001421D01*
D16*
X014285Y001184D03*
X012160Y001184D03*
X007910Y002371D03*
X008973Y004996D03*
X008223Y006309D03*
X010223Y008621D03*
X003035Y007746D03*
X000785Y008496D03*
X002410Y002371D03*
D17*
X010035Y014246D03*
D18*
X008660Y010371D03*
X007910Y010371D03*
X007098Y010371D03*
X006285Y010371D03*
X004310Y008496D03*
X005349Y007183D03*
X005910Y006621D03*
X006785Y006121D03*
X006035Y005246D03*
X005410Y005621D03*
X005910Y004121D03*
X009660Y004121D03*
X012035Y003496D03*
X013410Y001746D03*
X015910Y002746D03*
X016785Y002746D03*
X017285Y001246D03*
X008785Y006871D03*
X008223Y007934D03*
M02*
