%
M48
M72
T01C0.0276
T02C0.0315
T03C0.0354
T04C0.0400
T05C0.0433
T06C0.1260
%
T01
X5910Y4121
X6035Y5246
X5410Y5621
X5910Y6621
X5349Y7183
X6785Y6121
X8785Y6871
X8223Y7934
X7910Y10371
X8660Y10371
X7098Y10371
X6285Y10371
X4310Y8496
X9660Y4121
X12035Y3496
X13410Y1746
X15910Y2746
X16785Y2746
X17285Y1246
T02
X14285Y1184
X12160Y1184
X7910Y2371
X8973Y4996
X8223Y6309
X10223Y8621
X3035Y7746
X785Y8496
X2410Y2371
T03
X10035Y14246
T04
X6535Y14121
X6535Y13121
X2910Y13121
X1910Y13121
X910Y13121
X910Y14121
X1910Y14121
X2910Y14121
X910Y5871
X910Y4871
X17410Y13121
X17410Y14121
T05
X1186Y2356
X10635Y2356
X10635Y10387
X1186Y10387
T06
X17660Y8121
M30
